<svg width="24" height="24" viewBox="0 0 24 24" fill="none" xmlns="http://www.w3.org/2000/svg">
<rect width="24" height="24" fill="#1E1E1E"/>
<g id="Outcome- Rules Agreement" clip-path="url(#clip0_0_1)">
<rect width="1440" height="900" transform="translate(-24 -472)" fill="white"/>
<g id="Frame 960">
<path id="Rectangle 1027" d="M-24 -472H224V428H-24V-472Z" fill="#162E85"/>
<g id="Row" clip-path="url(#clip1_0_1)">
<g id="Frame 957">
<g id="24px / Content / support" clip-path="url(#clip2_0_1)">
<g id="Group">
<path id="Vector" opacity="0.4" fill-rule="evenodd" clip-rule="evenodd" d="M12 2C6.48 2 2 6.48 2 12C2 17.52 6.48 22 12 22C17.52 22 22 17.52 22 12C22 6.48 17.52 2 12 2ZM16.4272 9.70379C16.5842 10.0045 16.9398 10.1625 17.2533 10.0328L18.9188 9.34389C19.2198 9.21938 19.3685 8.8762 19.2292 8.58175C18.4391 6.91141 17.0875 5.5607 15.4169 4.77773C15.1228 4.6399 14.7812 4.78888 14.657 5.08899L13.9693 6.75161C13.8388 7.06701 13.9996 7.42462 14.3028 7.5814C15.2137 8.05244 15.9532 8.7961 16.4272 9.70379ZM9 12C9 13.66 10.34 15 12 15C13.66 15 15 13.66 15 12C15 10.34 13.66 9 12 9C10.34 9 9 10.34 9 12ZM9.72177 7.57231C10.0271 7.41521 10.1883 7.05462 10.0551 6.73818L9.35545 5.07569C9.2298 4.77712 8.88858 4.63009 8.59542 4.7679C6.91429 5.55822 5.55933 6.91289 4.76866 8.59381C4.63048 8.88758 4.77841 9.22948 5.07803 9.3545L6.74291 10.0492C7.0577 10.1806 7.41563 10.0212 7.57263 9.71838C8.05009 8.79748 8.80154 8.04585 9.72177 7.57231ZM7.57153 14.29C7.41516 13.9877 7.05847 13.8282 6.74395 13.9583L5.08037 14.6465C4.77971 14.7708 4.63087 15.1134 4.76942 15.4078C5.5597 17.087 6.9126 18.4405 8.58498 19.2308C8.8782 19.3693 9.22001 19.2224 9.34581 18.9235L10.0451 17.2618C10.1783 16.9454 10.017 16.5848 9.71167 16.4279C8.79315 15.9559 8.04711 15.2094 7.57153 14.29ZM14.298 16.4276C13.9966 16.5845 13.8378 16.9407 13.9677 17.2547L14.6561 18.9188C14.7806 19.2198 15.1238 19.3685 15.4183 19.2292C17.0893 18.4388 18.441 17.0865 19.2308 15.415C19.3693 15.1218 19.2224 14.78 18.9235 14.6542L17.2618 13.9549C16.9454 13.8217 16.5848 13.983 16.4279 14.2883C15.9564 15.2063 15.2114 15.952 14.298 16.4276Z" fill="white" fill-opacity="0.7"/>
<g id="Vector_2">
<path d="M8.68336 4.72727C8.92904 4.6154 9.2132 4.73764 9.31792 4.98645L10.096 6.83519C10.207 7.09889 10.073 7.39972 9.81588 7.5252C8.82161 8.01039 8.01556 8.81658 7.52565 9.81144C7.40008 10.0664 7.10146 10.1988 6.83913 10.0894L4.98839 9.31712C4.73872 9.21294 4.61572 8.92821 4.72788 8.68201C5.52564 6.93092 6.93209 5.52472 8.68336 4.72727Z" fill="white"/>
<path d="M19.2705 8.67028C19.3835 8.91706 19.2598 9.20285 19.009 9.30661L17.1578 10.0724C16.8966 10.1805 16.5999 10.0492 16.4742 9.79599C15.9874 8.81535 15.1944 8.01749 14.2097 7.5345C13.9543 7.40924 13.8207 7.11088 13.9294 6.84805L14.6942 4.99919C14.7977 4.74911 15.0822 4.62524 15.3287 4.73706C17.0695 5.52685 18.4731 6.92965 19.2705 8.67028Z" fill="white"/>
<path d="M15.3298 19.2705C15.083 19.3835 14.7972 19.2598 14.6935 19.009L13.9281 17.1589C13.8199 16.8973 13.9518 16.6001 14.2056 16.4746C15.1926 15.9863 15.9916 15.1865 16.4751 14.1943C16.6004 13.9371 16.9012 13.8031 17.1649 13.9141L19.0129 14.6919C19.262 14.7967 19.3842 15.0813 19.2717 15.3271C18.4747 17.0686 17.071 18.4728 15.3298 19.2705Z" fill="white"/>
<path d="M4.7285 15.3194C4.61605 15.0727 4.7398 14.7874 4.99035 14.6838L6.84 13.9186C7.1021 13.8102 7.3997 13.9427 7.52479 14.1973C8.01298 15.1908 8.81304 15.9913 9.8058 16.475C10.063 16.6004 10.197 16.9012 10.086 17.1649L9.30822 19.0129C9.20338 19.262 8.91873 19.3842 8.67299 19.2717C6.93065 18.4743 5.52596 17.0691 4.7285 15.3194Z" fill="white"/>
</g>
</g>
</g>
</g>
</g>
</g>
</g>
<defs>
<clipPath id="clip0_0_1">
<rect width="1440" height="900" fill="white" transform="translate(-24 -472)"/>
</clipPath>
<clipPath id="clip1_0_1">
<rect width="232" height="40" fill="white" transform="translate(-16 -8)"/>
</clipPath>
<clipPath id="clip2_0_1">
<rect width="24" height="24" fill="white"/>
</clipPath>
</defs>
</svg>
